<svg version="1.1" xmlns="http://www.w3.org/2000/svg" xmlns:xlink="http://www.w3.org/1999/xlink" width="604" height="468"><defs/>

<g transform="translate(-46,2) scale(1,1)"><rect fill="#C0C0C0" stroke="none" x="135" y="15" width="512" height="448" opacity="0.2"/></g><g transform="translate(-46,2) scale(1,1)"><rect fill="#ffffff" stroke="none" x="128" y="8" width="512" height="448"/></g><g transform="translate(-46,2) scale(1,1)"><path fill="none" stroke="#000000" d="M 128 8 L 640 8 L 640 456 L 128 456 L 128 8 Z Z" stroke-miterlimit="10"/></g><g transform="translate(-46,2) scale(1,1)"><g><path fill="none" stroke="none"/><text fill="#000000" stroke="none" font-family="Arial" font-size="13px" font-style="normal" font-weight="bold" text-decoration="none" x="359.802734375" y="26">MC-Dex</text></g></g><g transform="translate(-46,2) scale(1,1)"><path fill="#ffffff" stroke="none" d="M 83.60661594460227 193.68 C 83.60661594460227 188.886167936 87.49245826954773 185 92.285888671875 185 C 97.07931907420227 185 100.96516139914773 188.886167936 100.96516139914773 193.68 C 100.96516139914773 198.47383206400002 97.07931907420227 202.36 92.285888671875 202.36 C 87.49245826954773 202.36 83.60661594460227 198.47383206400002 83.60661594460227 193.68 Z"/></g><g transform="translate(-46,2) scale(1,1)"><path fill="none" stroke="#000000" d="M 83.60661594460227 193.68 C 83.60661594460227 188.886167936 87.49245826954773 185 92.285888671875 185 C 97.07931907420227 185 100.96516139914773 188.886167936 100.96516139914773 193.68 C 100.96516139914773 198.47383206400002 97.07931907420227 202.36 92.285888671875 202.36 C 87.49245826954773 202.36 83.60661594460227 198.47383206400002 83.60661594460227 193.68 Z" stroke-miterlimit="10"/></g><g transform="translate(-46,2) scale(1,1)"><path fill="none" stroke="#000000" d="M 92.285888671875 202.36 L 92.285888671875 219.64" stroke-miterlimit="10"/></g><g transform="translate(-46,2) scale(1,1)"><path fill="none" stroke="#000000" d="M 83.09607049005682 208.84 L 101.47570685369318 208.84" stroke-miterlimit="10"/></g><g transform="translate(-46,2) scale(1,1)"><path fill="none" stroke="#000000" d="M 92.285888671875 219.64 L 79.52225230823863 237" stroke-miterlimit="10"/></g><g transform="translate(-46,2) scale(1,1)"><path fill="none" stroke="#000000" d="M 92.285888671875 219.64 L 105.04952503551137 237" stroke-miterlimit="10"/></g><g transform="translate(-46,2) scale(1,1)"><g><path fill="none" stroke="none"/><text fill="#000000" stroke="none" font-family="Arial" font-size="13px" font-style="normal" font-weight="bold" text-decoration="none" x="60.5" y="256">Utilisateur</text></g></g><g transform="translate(-46,2) scale(1,1)"><path fill="#C0C0C0" stroke="none" d="M 247 247 C 247 233.7451648 272.5197664 223 304 223 C 335.4802336 223 361 233.7451648 361 247 C 361 260.2548352 335.4802336 271 304 271 C 272.5197664 271 247 260.2548352 247 247 Z" opacity="0.2"/></g><g transform="translate(-46,2) scale(1,1)"><path fill="#ffffff" stroke="none" d="M 240 240 C 240 226.7451648 265.5197664 216 297 216 C 328.4802336 216 354 226.7451648 354 240 C 354 253.2548352 328.4802336 264 297 264 C 265.5197664 264 240 253.2548352 240 240 Z"/></g><g transform="translate(-46,2) scale(1,1)"><path fill="none" stroke="#000000" d="M 240 240 C 240 226.7451648 265.5197664 216 297 216 C 328.4802336 216 354 226.7451648 354 240 C 354 253.2548352 328.4802336 264 297 264 C 265.5197664 264 240 253.2548352 240 240 Z" stroke-miterlimit="10"/></g><g transform="translate(-46,2) scale(1,1)"><g><path fill="none" stroke="none"/><text fill="#000000" stroke="none" font-family="Arial" font-size="13px" font-style="normal" font-weight="bold" text-decoration="none" x="266.66455078125" y="245.5">Consulter</text></g></g><g transform="translate(-46,2) scale(1,1)"><path fill="none" stroke="#000000" d="M 130 226 L 239 235" stroke-miterlimit="10"/></g><g transform="translate(-46,2) scale(1,1)"><path fill="#C0C0C0" stroke="none" d="M 255 371 C 255 355.5360256 280.0720512 343 311 343 C 341.9279488 343 367 355.5360256 367 371 C 367 386.4639744 341.9279488 399 311 399 C 280.0720512 399 255 386.4639744 255 371 Z" opacity="0.2"/></g><g transform="translate(-46,2) scale(1,1)"><path fill="#ffffff" stroke="none" d="M 248 364 C 248 348.5360256 273.0720512 336 304 336 C 334.9279488 336 360 348.5360256 360 364 C 360 379.4639744 334.9279488 392 304 392 C 273.0720512 392 248 379.4639744 248 364 Z"/></g><g transform="translate(-46,2) scale(1,1)"><path fill="none" stroke="#000000" d="M 248 364 C 248 348.5360256 273.0720512 336 304 336 C 334.9279488 336 360 348.5360256 360 364 C 360 379.4639744 334.9279488 392 304 392 C 273.0720512 392 248 379.4639744 248 364 Z" stroke-miterlimit="10"/></g><g transform="translate(-46,2) scale(1,1)"><g><path fill="none" stroke="none"/><text fill="#000000" stroke="none" font-family="Arial" font-size="13px" font-style="normal" font-weight="bold" text-decoration="none" x="281.25" y="369.5">Ajouter</text></g></g><g transform="translate(-46,2) scale(1,1)"><path fill="#C0C0C0" stroke="none" d="M 247 134.5 C 247 121.5213072 272.5197664 111 304 111 C 335.4802336 111 361 121.5213072 361 134.5 C 361 147.4786928 335.4802336 158 304 158 C 272.5197664 158 247 147.4786928 247 134.5 Z" opacity="0.2"/></g><g transform="translate(-46,2) scale(1,1)"><path fill="#ffffff" stroke="none" d="M 240 127.5 C 240 114.5213072 265.5197664 104 297 104 C 328.4802336 104 354 114.5213072 354 127.5 C 354 140.4786928 328.4802336 151 297 151 C 265.5197664 151 240 140.4786928 240 127.5 Z"/></g><g transform="translate(-46,2) scale(1,1)"><path fill="none" stroke="#000000" d="M 240 127.5 C 240 114.5213072 265.5197664 104 297 104 C 328.4802336 104 354 114.5213072 354 127.5 C 354 140.4786928 328.4802336 151 297 151 C 265.5197664 151 240 140.4786928 240 127.5 Z" stroke-miterlimit="10"/></g><g transform="translate(-46,2) scale(1,1)"><g><path fill="none" stroke="none"/><text fill="#000000" stroke="none" font-family="Arial" font-size="13px" font-style="normal" font-weight="bold" text-decoration="none" x="261.23095703125" y="133">Rechercher</text></g></g><g transform="translate(-46,2) scale(1,1)"><path fill="none" stroke="#000000" d="M 130 248 L 260 335" stroke-miterlimit="10"/></g><g transform="translate(-46,2) scale(1,1)"><path fill="none" stroke="#000000" d="M 130 205 L 244 152" stroke-miterlimit="10"/></g><g transform="translate(-46,2) scale(1,1)"><path fill="#C0C0C0" stroke="none" d="M 463 96 C 463 86.6111584 485.6096176 79 513.5 79 C 541.3903824 79 564 86.6111584 564 96 C 564 105.3888416 541.3903824 113 513.5 113 C 485.6096176 113 463 105.3888416 463 96 Z" opacity="0.2"/></g><g transform="translate(-46,2) scale(1,1)"><path fill="#ffffff" stroke="none" d="M 456 89 C 456 79.6111584 478.6096176 72 506.5 72 C 534.3903824 72 557 79.6111584 557 89 C 557 98.3888416 534.3903824 106 506.5 106 C 478.6096176 106 456 98.3888416 456 89 Z"/></g><g transform="translate(-46,2) scale(1,1)"><path fill="none" stroke="#000000" d="M 456 89 C 456 79.6111584 478.6096176 72 506.5 72 C 534.3903824 72 557 79.6111584 557 89 C 557 98.3888416 534.3903824 106 506.5 106 C 478.6096176 106 456 98.3888416 456 89 Z" stroke-miterlimit="10"/></g><g transform="translate(-46,2) scale(1,1)"><g><path fill="none" stroke="none"/><text fill="#000000" stroke="none" font-family="Arial" font-size="13px" font-style="normal" font-weight="bold" text-decoration="none" x="480.49365234375" y="94.5">Par nom</text></g></g><g transform="translate(-46,2) scale(1,1)"><path fill="#C0C0C0" stroke="none" d="M 463 144 C 463 134.6111584 493.220776 127 530.5 127 C 567.779224 127 598 134.6111584 598 144 C 598 153.3888416 567.779224 161 530.5 161 C 493.220776 161 463 153.3888416 463 144 Z" opacity="0.2"/></g><g transform="translate(-46,2) scale(1,1)"><path fill="#ffffff" stroke="none" d="M 456 137 C 456 127.6111584 486.220776 120 523.5 120 C 560.779224 120 591 127.6111584 591 137 C 591 146.3888416 560.779224 154 523.5 154 C 486.220776 154 456 146.3888416 456 137 Z"/></g><g transform="translate(-46,2) scale(1,1)"><path fill="none" stroke="#000000" d="M 456 137 C 456 127.6111584 486.220776 120 523.5 120 C 560.779224 120 591 127.6111584 591 137 C 591 146.3888416 560.779224 154 523.5 154 C 486.220776 154 456 146.3888416 456 137 Z" stroke-miterlimit="10"/></g><g transform="translate(-46,2) scale(1,1)"><g><path fill="none" stroke="none"/><text fill="#000000" stroke="none" font-family="Arial" font-size="13px" font-style="normal" font-weight="bold" text-decoration="none" x="480.161376953125" y="142.5">Par identifiant</text></g></g><g transform="translate(-46,2) scale(1,1)"><path fill="none" stroke="#000000" d="M 455 98 L 355 116" stroke-miterlimit="10" stroke-dasharray="3"/></g><g transform="translate(-46,2) scale(1,1)"><path fill="none" stroke="#000000" d="M 364.2562064299009 110.05671450062661 L 355 116 L 365.74766381378004 118.34258885551083" stroke-miterlimit="10"/></g><g transform="translate(-46,2) scale(1,1)"><g><path fill="none" stroke="none"/><text fill="#000000" stroke="none" font-family="Arial" font-size="13px" font-style="normal" font-weight="normal" text-decoration="none" x="391.5" y="91">«extend»</text></g></g><g transform="translate(-46,2) scale(1,1)"><path fill="none" stroke="#000000" d="M 455 134 L 355 130" stroke-miterlimit="10" stroke-dasharray="3"/></g><g transform="translate(-46,2) scale(1,1)"><path fill="none" stroke="#000000" d="M 365.32280062801857 126.20002800086907 L 355 130 L 364.9863082938132 134.6123363560042" stroke-miterlimit="10"/></g><g transform="translate(-46,2) scale(1,1)"><g><path fill="none" stroke="none"/><text fill="#000000" stroke="none" font-family="Arial" font-size="13px" font-style="normal" font-weight="normal" text-decoration="none" x="377.5" y="156">«extend»</text></g></g></g></svg>