<svg version="1.1" xmlns="http://www.w3.org/2000/svg" xmlns:xlink="http://www.w3.org/1999/xlink" width="980" height="732"><defs/>


<g transform="translate(-30,10) scale(1,1)"><rect fill="#C0C0C0" stroke="none" x="143" y="7" width="864" height="712" opacity="0.2"/></g>

<g transform="translate(-30,10) scale(1,1)"><rect fill="#ffffff" stroke="none" x="136" y="0" width="864" height="712"/></g>

<g transform="translate(-30,10) scale(1,1)"><path fill="none" stroke="#000000" d="M 136 0 L 1000 0 L 1000 712 L 136 712 L 136 0 Z Z" stroke-miterlimit="10"/></g>

<g transform="translate(-30,10) scale(1,1)">

<g><path fill="none" stroke="none"/><text fill="#000000" stroke="none" font-family="Arial" font-size="13px" font-style="normal" font-weight="bold" text-decoration="none" x="543.802734375" y="18">MC-Dex</text></g></g>

<g transform="translate(-30,10) scale(1,1)"><path fill="#ffffff" stroke="none" d="M 67.60661594460227 305.68 C 67.60661594460227 300.886167936 71.49245826954773 297 76.285888671875 297 C 81.07931907420227 297 84.96516139914773 300.886167936 84.96516139914773 305.68 C 84.96516139914773 310.473832064 81.07931907420227 314.36 76.285888671875 314.36 C 71.49245826954773 314.36 67.60661594460227 310.473832064 67.60661594460227 305.68 Z"/></g>

<g transform="translate(-30,10) scale(1,1)"><path fill="none" stroke="#000000" d="M 67.60661594460227 305.68 C 67.60661594460227 300.886167936 71.49245826954773 297 76.285888671875 297 C 81.07931907420227 297 84.96516139914773 300.886167936 84.96516139914773 305.68 C 84.96516139914773 310.473832064 81.07931907420227 314.36 76.285888671875 314.36 C 71.49245826954773 314.36 67.60661594460227 310.473832064 67.60661594460227 305.68 Z" stroke-miterlimit="10"/></g>

<g transform="translate(-30,10) scale(1,1)"><path fill="none" stroke="#000000" d="M 76.285888671875 314.36 L 76.285888671875 331.64" stroke-miterlimit="10"/></g>

<g transform="translate(-30,10) scale(1,1)"><path fill="none" stroke="#000000" d="M 67.09607049005682 320.84 L 85.47570685369318 320.84" stroke-miterlimit="10"/></g>

<g transform="translate(-30,10) scale(1,1)"><path fill="none" stroke="#000000" d="M 76.285888671875 331.64 L 63.522252308238635 349" stroke-miterlimit="10"/></g>

<g transform="translate(-30,10) scale(1,1)"><path fill="none" stroke="#000000" d="M 76.285888671875 331.64 L 89.04952503551137 349" stroke-miterlimit="10"/></g>

<g transform="translate(-30,10) scale(1,1)">

<g><path fill="none" stroke="none"/><text fill="#000000" stroke="none" font-family="Arial" font-size="13px" font-style="normal" font-weight="bold" text-decoration="none" x="44.5" y="368">Utilisateur</text></g></g>

<g transform="translate(-30,10) scale(1,1)"><path fill="#C0C0C0" stroke="none" d="M 255 271 C 255 257.7451648 280.5197664 247 312 247 C 343.4802336 247 369 257.7451648 369 271 C 369 284.2548352 343.4802336 295 312 295 C 280.5197664 295 255 284.2548352 255 271 Z" opacity="0.2"/></g>

<g transform="translate(-30,10) scale(1,1)"><path fill="#ffffff" stroke="none" d="M 248 264 C 248 250.7451648 273.5197664 240 305 240 C 336.4802336 240 362 250.7451648 362 264 C 362 277.2548352 336.4802336 288 305 288 C 273.5197664 288 248 277.2548352 248 264 Z"/></g>

<g transform="translate(-30,10) scale(1,1)"><path fill="none" stroke="#000000" d="M 248 264 C 248 250.7451648 273.5197664 240 305 240 C 336.4802336 240 362 250.7451648 362 264 C 362 277.2548352 336.4802336 288 305 288 C 273.5197664 288 248 277.2548352 248 264 Z" stroke-miterlimit="10"/></g>

<g transform="translate(-30,10) scale(1,1)">

<g><path fill="none" stroke="none"/><text fill="#000000" stroke="none" font-family="Arial" font-size="13px" font-style="normal" font-weight="bold" text-decoration="none" x="274.66455078125" y="269.5">Consulter</text></g></g>

<g transform="translate(-30,10) scale(1,1)"><path fill="none" stroke="#000000" d="M 114 323 L 247 282" stroke-miterlimit="10"/></g>

<g transform="translate(-30,10) scale(1,1)"><path fill="#C0C0C0" stroke="none" d="M 263 411 C 263 395.5360256 288.0720512 383 319 383 C 349.9279488 383 375 395.5360256 375 411 C 375 426.4639744 349.9279488 439 319 439 C 288.0720512 439 263 426.4639744 263 411 Z" opacity="0.2"/></g>

<g transform="translate(-30,10) scale(1,1)"><path fill="#ffffff" stroke="none" d="M 256 404 C 256 388.5360256 281.0720512 376 312 376 C 342.9279488 376 368 388.5360256 368 404 C 368 419.4639744 342.9279488 432 312 432 C 281.0720512 432 256 419.4639744 256 404 Z"/></g>

<g transform="translate(-30,10) scale(1,1)"><path fill="none" stroke="#000000" d="M 256 404 C 256 388.5360256 281.0720512 376 312 376 C 342.9279488 376 368 388.5360256 368 404 C 368 419.4639744 342.9279488 432 312 432 C 281.0720512 432 256 419.4639744 256 404 Z" stroke-miterlimit="10"/></g>

<g transform="translate(-30,10) scale(1,1)">

<g><path fill="none" stroke="none"/><text fill="#000000" stroke="none" font-family="Arial" font-size="13px" font-style="normal" font-weight="bold" text-decoration="none" x="289.25" y="409.5">Ajouter</text></g></g>

<g transform="translate(-30,10) scale(1,1)"><path fill="#C0C0C0" stroke="none" d="M 247 134.5 C 247 121.5213072 272.5197664 111 304 111 C 335.4802336 111 361 121.5213072 361 134.5 C 361 147.4786928 335.4802336 158 304 158 C 272.5197664 158 247 147.4786928 247 134.5 Z" opacity="0.2"/></g>

<g transform="translate(-30,10) scale(1,1)"><path fill="#ffffff" stroke="none" d="M 240 127.5 C 240 114.5213072 265.5197664 104 297 104 C 328.4802336 104 354 114.5213072 354 127.5 C 354 140.4786928 328.4802336 151 297 151 C 265.5197664 151 240 140.4786928 240 127.5 Z"/></g>

<g transform="translate(-30,10) scale(1,1)"><path fill="none" stroke="#000000" d="M 240 127.5 C 240 114.5213072 265.5197664 104 297 104 C 328.4802336 104 354 114.5213072 354 127.5 C 354 140.4786928 328.4802336 151 297 151 C 265.5197664 151 240 140.4786928 240 127.5 Z" stroke-miterlimit="10"/></g>

<g transform="translate(-30,10) scale(1,1)">

<g><path fill="none" stroke="none"/><text fill="#000000" stroke="none" font-family="Arial" font-size="13px" font-style="normal" font-weight="bold" text-decoration="none" x="261.23095703125" y="133">Rechercher</text></g></g>

<g transform="translate(-30,10) scale(1,1)"><path fill="none" stroke="#000000" d="M 114 346 L 255 387" stroke-miterlimit="10"/></g>

<g transform="translate(-30,10) scale(1,1)"><path fill="none" stroke="#000000" d="M 114 300 L 270 152" stroke-miterlimit="10"/></g>

<g transform="translate(-30,10) scale(1,1)"><path fill="#C0C0C0" stroke="none" d="M 199 632 C 199 622.6111584 241.7568016 615 294.5 615 C 347.2431984 615 390 622.6111584 390 632 C 390 641.3888416 347.2431984 649 294.5 649 C 241.7568016 649 199 641.3888416 199 632 Z" opacity="0.2"/></g>

<g transform="translate(-30,10) scale(1,1)"><path fill="#ffffff" stroke="none" d="M 192 625 C 192 615.6111584 234.7568016 608 287.5 608 C 340.2431984 608 383 615.6111584 383 625 C 383 634.3888416 340.2431984 642 287.5 642 C 234.7568016 642 192 634.3888416 192 625 Z"/></g>

<g transform="translate(-30,10) scale(1,1)"><path fill="none" stroke="#000000" d="M 192 625 C 192 615.6111584 234.7568016 608 287.5 608 C 340.2431984 608 383 615.6111584 383 625 C 383 634.3888416 340.2431984 642 287.5 642 C 234.7568016 642 192 634.3888416 192 625 Z" stroke-miterlimit="10"/></g>

<g transform="translate(-30,10) scale(1,1)">

<g><path fill="none" stroke="none"/><text fill="#000000" stroke="none" font-family="Arial" font-size="13px" font-style="normal" font-weight="bold" text-decoration="none" x="239.476806640625" y="630.5">Ajouter un nom</text></g></g>

<g transform="translate(-30,10) scale(1,1)"><path fill="#C0C0C0" stroke="none" d="M 463 96 C 463 86.6111584 485.6096176 79 513.5 79 C 541.3903824 79 564 86.6111584 564 96 C 564 105.3888416 541.3903824 113 513.5 113 C 485.6096176 113 463 105.3888416 463 96 Z" opacity="0.2"/></g>

<g transform="translate(-30,10) scale(1,1)"><path fill="#ffffff" stroke="none" d="M 456 89 C 456 79.6111584 478.6096176 72 506.5 72 C 534.3903824 72 557 79.6111584 557 89 C 557 98.3888416 534.3903824 106 506.5 106 C 478.6096176 106 456 98.3888416 456 89 Z"/></g>

<g transform="translate(-30,10) scale(1,1)"><path fill="none" stroke="#000000" d="M 456 89 C 456 79.6111584 478.6096176 72 506.5 72 C 534.3903824 72 557 79.6111584 557 89 C 557 98.3888416 534.3903824 106 506.5 106 C 478.6096176 106 456 98.3888416 456 89 Z" stroke-miterlimit="10"/></g>

<g transform="translate(-30,10) scale(1,1)">

<g><path fill="none" stroke="none"/><text fill="#000000" stroke="none" font-family="Arial" font-size="13px" font-style="normal" font-weight="bold" text-decoration="none" x="480.49365234375" y="94.5">Par nom</text></g></g>

<g transform="translate(-30,10) scale(1,1)"><path fill="#C0C0C0" stroke="none" d="M 463 160 C 463 150.6111584 485.6096176 143 513.5 143 C 541.3903824 143 564 150.6111584 564 160 C 564 169.3888416 541.3903824 177 513.5 177 C 485.6096176 177 463 169.3888416 463 160 Z" opacity="0.2"/></g>

<g transform="translate(-30,10) scale(1,1)"><path fill="#ffffff" stroke="none" d="M 456 153 C 456 143.6111584 478.6096176 136 506.5 136 C 534.3903824 136 557 143.6111584 557 153 C 557 162.3888416 534.3903824 170 506.5 170 C 478.6096176 170 456 162.3888416 456 153 Z"/></g>

<g transform="translate(-30,10) scale(1,1)"><path fill="none" stroke="#000000" d="M 456 153 C 456 143.6111584 478.6096176 136 506.5 136 C 534.3903824 136 557 143.6111584 557 153 C 557 162.3888416 534.3903824 170 506.5 170 C 478.6096176 170 456 162.3888416 456 153 Z" stroke-miterlimit="10"/></g>

<g transform="translate(-30,10) scale(1,1)">

<g><path fill="none" stroke="none"/><text fill="#000000" stroke="none" font-family="Arial" font-size="13px" font-style="normal" font-weight="bold" text-decoration="none" x="488.437744140625" y="158.5">Par Id</text></g></g>

<g transform="translate(-30,10) scale(1,1)"><path fill="#C0C0C0" stroke="none" d="M 415 640 C 415 630.6111584 453.7273648 623 501.5 623 C 549.2726352 623 588 630.6111584 588 640 C 588 649.3888416 549.2726352 657 501.5 657 C 453.7273648 657 415 649.3888416 415 640 Z" opacity="0.2"/></g>

<g transform="translate(-30,10) scale(1,1)"><path fill="#ffffff" stroke="none" d="M 408 633 C 408 623.6111584 446.7273648 616 494.5 616 C 542.2726352 616 581 623.6111584 581 633 C 581 642.3888416 542.2726352 650 494.5 650 C 446.7273648 650 408 642.3888416 408 633 Z"/></g>

<g transform="translate(-30,10) scale(1,1)"><path fill="none" stroke="#000000" d="M 408 633 C 408 623.6111584 446.7273648 616 494.5 616 C 542.2726352 616 581 623.6111584 581 633 C 581 642.3888416 542.2726352 650 494.5 650 C 446.7273648 650 408 642.3888416 408 633 Z" stroke-miterlimit="10"/></g>

<g transform="translate(-30,10) scale(1,1)">

<g><path fill="none" stroke="none"/><text fill="#000000" stroke="none" font-family="Arial" font-size="13px" font-style="normal" font-weight="bold" text-decoration="none" x="437.79638671875" y="638.5">Ajouter une image</text></g></g>

<g transform="translate(-30,10) scale(1,1)"><path fill="#C0C0C0" stroke="none" d="M 599 624 C 599 614.6111584 643.0999472 607 697.5 607 C 751.9000528 607 796 614.6111584 796 624 C 796 633.3888416 751.9000528 641 697.5 641 C 643.0999472 641 599 633.3888416 599 624 Z" opacity="0.2"/></g>

<g transform="translate(-30,10) scale(1,1)"><path fill="#ffffff" stroke="none" d="M 592 617 C 592 607.6111584 636.0999472 600 690.5 600 C 744.9000528 600 789 607.6111584 789 617 C 789 626.3888416 744.9000528 634 690.5 634 C 636.0999472 634 592 626.3888416 592 617 Z"/></g>

<g transform="translate(-30,10) scale(1,1)"><path fill="none" stroke="#000000" d="M 592 617 C 592 607.6111584 636.0999472 600 690.5 600 C 744.9000528 600 789 607.6111584 789 617 C 789 626.3888416 744.9000528 634 690.5 634 C 636.0999472 634 592 626.3888416 592 617 Z" stroke-miterlimit="10"/></g>

<g transform="translate(-30,10) scale(1,1)">

<g><path fill="none" stroke="none"/><text fill="#000000" stroke="none" font-family="Arial" font-size="13px" font-style="normal" font-weight="bold" text-decoration="none" x="625.14453125" y="622.5">Ajouter un identifiant</text></g></g>

<g transform="translate(-30,10) scale(1,1)"><path fill="#C0C0C0" stroke="none" d="M 679 560 C 679 550.6111584 719.294368 543 769 543 C 818.705632 543 859 550.6111584 859 560 C 859 569.3888416 818.705632 577 769 577 C 719.294368 577 679 569.3888416 679 560 Z" opacity="0.2"/></g>

<g transform="translate(-30,10) scale(1,1)"><path fill="#ffffff" stroke="none" d="M 672 553 C 672 543.6111584 712.294368 536 762 536 C 811.705632 536 852 543.6111584 852 553 C 852 562.3888416 811.705632 570 762 570 C 712.294368 570 672 562.3888416 672 553 Z"/></g>

<g transform="translate(-30,10) scale(1,1)"><path fill="none" stroke="#000000" d="M 672 553 C 672 543.6111584 712.294368 536 762 536 C 811.705632 536 852 543.6111584 852 553 C 852 562.3888416 811.705632 570 762 570 C 712.294368 570 672 562.3888416 672 553 Z" stroke-miterlimit="10"/></g>

<g transform="translate(-30,10) scale(1,1)">

<g><path fill="none" stroke="none"/><text fill="#000000" stroke="none" font-family="Arial" font-size="13px" font-style="normal" font-weight="bold" text-decoration="none" x="702.763671875" y="558.5">Ajouter une recette</text></g></g>

<g transform="translate(-30,10) scale(1,1)"><path fill="none" stroke="#000000" d="M 708 535 L 369 423" stroke-miterlimit="10" stroke-dasharray="3"/></g>

<g transform="translate(-30,10) scale(1,1)"><path fill="none" stroke="#000000" d="M 379.97021552370626 422.1910677633855 L 369 423 L 377.32911525792116 430.1851123178601" stroke-miterlimit="10"/></g>

<g transform="translate(-30,10) scale(1,1)">

<g><path fill="none" stroke="none"/><text fill="#000000" stroke="none" font-family="Arial" font-size="13px" font-style="normal" font-weight="normal" text-decoration="none" x="557.5" y="517">«extend»</text></g></g>

<g transform="translate(-30,10) scale(1,1)"><path fill="#C0C0C0" stroke="none" d="M 695 338.5 C 695 327.7304464 755.6654096 319 830.5 319 C 905.3345904 319 966 327.7304464 966 338.5 C 966 349.2695536 905.3345904 358 830.5 358 C 755.6654096 358 695 349.2695536 695 338.5 Z" opacity="0.2"/></g>

<g transform="translate(-30,10) scale(1,1)"><path fill="#ffffff" stroke="none" d="M 688 331.5 C 688 320.7304464 748.6654096 312 823.5 312 C 898.3345904 312 959 320.7304464 959 331.5 C 959 342.2695536 898.3345904 351 823.5 351 C 748.6654096 351 688 342.2695536 688 331.5 Z"/></g>

<g transform="translate(-30,10) scale(1,1)"><path fill="none" stroke="#000000" d="M 688 331.5 C 688 320.7304464 748.6654096 312 823.5 312 C 898.3345904 312 959 320.7304464 959 331.5 C 959 342.2695536 898.3345904 351 823.5 351 C 748.6654096 351 688 342.2695536 688 331.5 Z" stroke-miterlimit="10"/></g>

<g transform="translate(-30,10) scale(1,1)">

<g><path fill="none" stroke="none"/><text fill="#000000" stroke="none" font-family="Arial" font-size="13px" font-style="normal" font-weight="bold" text-decoration="none" x="732.135009765625" y="337">Ajouter une autre information</text></g></g>

<g transform="translate(-30,10) scale(1,1)"><path fill="none" stroke="#000000" d="M 687 350 L 369 396" stroke-miterlimit="10" stroke-dasharray="3"/></g>

<g transform="translate(-30,10) scale(1,1)"><path fill="none" stroke="#000000" d="M 378.45533751272086 390.37891536084595 L 369 396 L 379.6606403396218 398.71122620768307" stroke-miterlimit="10"/></g>

<g transform="translate(-30,10) scale(1,1)">

<g><path fill="none" stroke="none"/><text fill="#000000" stroke="none" font-family="Arial" font-size="13px" font-style="normal" font-weight="normal" text-decoration="none" x="503.5" y="357">«extend»</text></g></g>

<g transform="translate(-30,10) scale(1,1)"><path fill="#C0C0C0" stroke="none" d="M 703 488 C 703 478.6111584 752.4725296 471 813.5 471 C 874.5274704 471 924 478.6111584 924 488 C 924 497.3888416 874.5274704 505 813.5 505 C 752.4725296 505 703 497.3888416 703 488 Z" opacity="0.2"/></g>

<g transform="translate(-30,10) scale(1,1)"><path fill="#ffffff" stroke="none" d="M 696 481 C 696 471.6111584 745.4725296 464 806.5 464 C 867.5274704 464 917 471.6111584 917 481 C 917 490.3888416 867.5274704 498 806.5 498 C 745.4725296 498 696 490.3888416 696 481 Z"/></g>

<g transform="translate(-30,10) scale(1,1)"><path fill="none" stroke="#000000" d="M 696 481 C 696 471.6111584 745.4725296 464 806.5 464 C 867.5274704 464 917 471.6111584 917 481 C 917 490.3888416 867.5274704 498 806.5 498 C 745.4725296 498 696 490.3888416 696 481 Z" stroke-miterlimit="10"/></g>

<g transform="translate(-30,10) scale(1,1)">

<g><path fill="none" stroke="none"/><text fill="#000000" stroke="none" font-family="Arial" font-size="13px" font-style="normal" font-weight="bold" text-decoration="none" x="732.81640625" y="486.5">Ajouter des statistiques</text></g></g>

<g transform="translate(-30,10) scale(1,1)"><path fill="none" stroke="#000000" d="M 695 464 L 369 413" stroke-miterlimit="10" stroke-dasharray="3"/></g>

<g transform="translate(-30,10) scale(1,1)"><path fill="none" stroke="#000000" d="M 379.6911818191032 410.4118285777643 L 369 413 L 378.38992072672227 418.7296935996501" stroke-miterlimit="10"/></g>

<g transform="translate(-30,10) scale(1,1)">

<g><path fill="none" stroke="none"/><text fill="#000000" stroke="none" font-family="Arial" font-size="13px" font-style="normal" font-weight="normal" text-decoration="none" x="566.5" y="468">«extend»</text></g></g>

<g transform="translate(-30,10) scale(1,1)"><path fill="#C0C0C0" stroke="none" d="M 719 416 C 719 406.6111584 768.0248144 399 828.5 399 C 888.9751856 399 938 406.6111584 938 416 C 938 425.3888416 888.9751856 433 828.5 433 C 768.0248144 433 719 425.3888416 719 416 Z" opacity="0.2"/></g>

<g transform="translate(-30,10) scale(1,1)"><path fill="#ffffff" stroke="none" d="M 712 409 C 712 399.6111584 761.0248144 392 821.5 392 C 881.9751856 392 931 399.6111584 931 409 C 931 418.3888416 881.9751856 426 821.5 426 C 761.0248144 426 712 418.3888416 712 409 Z"/></g>

<g transform="translate(-30,10) scale(1,1)"><path fill="none" stroke="#000000" d="M 712 409 C 712 399.6111584 761.0248144 392 821.5 392 C 881.9751856 392 931 399.6111584 931 409 C 931 418.3888416 881.9751856 426 821.5 426 C 761.0248144 426 712 418.3888416 712 409 Z" stroke-miterlimit="10"/></g>

<g transform="translate(-30,10) scale(1,1)">

<g><path fill="none" stroke="none"/><text fill="#000000" stroke="none" font-family="Arial" font-size="13px" font-style="normal" font-weight="bold" text-decoration="none" x="748.549560546875" y="414.5">Ajouter une description</text></g></g>

<g transform="translate(-30,10) scale(1,1)"><path fill="none" stroke="#000000" d="M 711 408 L 369 405" stroke-miterlimit="10" stroke-dasharray="3"/></g>

<g transform="translate(-30,10) scale(1,1)"><path fill="none" stroke="#000000" d="M 379.1992080615523 400.8797870301202 L 369 405 L 379.1253597139909 409.2984986521214" stroke-miterlimit="10"/></g>

<g transform="translate(-30,10) scale(1,1)">

<g><path fill="none" stroke="none"/><text fill="#000000" stroke="none" font-family="Arial" font-size="13px" font-style="normal" font-weight="normal" text-decoration="none" x="603.5" y="399">«extend»</text></g></g>

<g transform="translate(-30,10) scale(1,1)"><path fill="none" stroke="#000000" d="M 461 107 L 408 128 L 355 128" stroke-miterlimit="10"/></g>

<g transform="translate(-30,10) scale(1,1)"><path fill="#FFFFFF" stroke="none" d="M 375.3253497152483 119.58096448796803 L 355 128 L 375.3253497152483 136.41903551203197"/></g>

<g transform="translate(-30,10) scale(1,1)"><path fill="none" stroke="#000000" d="M 375.3253497152483 119.58096448796803 L 355 128 L 375.3253497152483 136.41903551203197 L 375.3253497152483 119.58096448796803" stroke-miterlimit="10"/></g>

<g transform="translate(-30,10) scale(1,1)"><path fill="none" stroke="#000000" d="M 455 141 L 400 128 L 355 128" stroke-miterlimit="10"/></g>

<g transform="translate(-30,10) scale(1,1)"><path fill="#FFFFFF" stroke="none" d="M 375.3253497152483 119.58096448796803 L 355 128 L 375.3253497152483 136.41903551203197"/></g>

<g transform="translate(-30,10) scale(1,1)"><path fill="none" stroke="#000000" d="M 375.3253497152483 119.58096448796803 L 355 128 L 375.3253497152483 136.41903551203197 L 375.3253497152483 119.58096448796803" stroke-miterlimit="10"/></g>

<g transform="translate(-30,10) scale(1,1)"><path fill="none" stroke="#000000" d="M 309 433 L 289 607" stroke-miterlimit="10" stroke-dasharray="3"/></g>

<g transform="translate(-30,10) scale(1,1)"><path fill="none" stroke="#000000" d="M 285.9785000009934 596.4231130404072 L 289 607 L 294.3424653543189 597.3844883683757" stroke-miterlimit="10"/></g>

<g transform="translate(-30,10) scale(1,1)">

<g><path fill="none" stroke="none"/><text fill="#000000" stroke="none" font-family="Arial" font-size="13px" font-style="normal" font-weight="normal" text-decoration="none" x="218.5" y="529">«include»</text></g></g>

<g transform="translate(-30,10) scale(1,1)"><path fill="none" stroke="#000000" d="M 321 433 L 360 560 L 461 615" stroke-miterlimit="10" stroke-dasharray="3"/></g>

<g transform="translate(-30,10) scale(1,1)"><path fill="none" stroke="#000000" d="M 450.06168625900807 613.8366889910142 L 461 615 L 454.0880292820815 606.4428590759157" stroke-miterlimit="10"/></g>

<g transform="translate(-30,10) scale(1,1)">

<g><path fill="none" stroke="none"/><text fill="#000000" stroke="none" font-family="Arial" font-size="13px" font-style="normal" font-weight="normal" text-decoration="none" x="375.5" y="563">«include»</text></g></g>

<g transform="translate(-30,10) scale(1,1)"><path fill="none" stroke="#000000" d="M 334 433 L 408 528 L 633 599" stroke-miterlimit="10" stroke-dasharray="3"/></g>

<g transform="translate(-30,10) scale(1,1)"><path fill="none" stroke="#000000" d="M 622.0416347299736 599.9561540716213 L 633 599 L 624.5751625789426 591.9273686347477" stroke-miterlimit="10"/></g>

<g transform="translate(-30,10) scale(1,1)">

<g><path fill="none" stroke="none"/><text fill="#000000" stroke="none" font-family="Arial" font-size="13px" font-style="normal" font-weight="normal" text-decoration="none" x="543.5" y="570">«include»</text></g></g></g></svg>